<?xml version="1.0" encoding="utf-8"?>
<!-- Generator: Adobe Illustrator 27.6.1, SVG Export Plug-In . SVG Version: 6.00 Build 0)  -->
<svg version="1.1" id="visual" xmlns="http://www.w3.org/2000/svg" xmlns:xlink="http://www.w3.org/1999/xlink" x="0px" y="0px"
	 viewBox="0 0 960 540" style="enable-background:new 0 0 960 540;" xml:space="preserve">
	 
<style type="text/css">
	.st0{fill:#210606;}
	.st1{fill:#F5730A;}
	.st2{fill:#E7670A;}
	.st3{fill:#DA5B09;}
	.st4{fill:#CC4F08;}
	.st5{fill:#BE4407;}
	.st6{fill:#B03806;}
	.st7{fill:#A32D04;}
	.st8{fill:#952103;}
	.st9{fill:#871400;}
</style>
<rect class="st0" width="960" height="540"/>
<path class="st1" d="M0,296l137-76l137-20l137,71l138,9l137-42l137,127l137-134v310H823H686H549H411H274H137H0V296z"/>
<path class="st2" d="M0,283l137,28l137-70l137,115l138-107l137,146l137-44l137-112v302H823H686H549H411H274H137H0V283z"/>
<path class="st3" d="M0,365l137-41l137,46l137,11l138-90l137,23l137,55l137,18v154H823H686H549H411H274H137H0V365z"/>
<path class="st4" d="M0,383l137,44l137-101l137-2l138,51l137,52l137-95l137,47v162H823H686H549H411H274H137H0V383z"/>
<path class="st5" d="M0,442l137-95l137,22l137,38l138-23l137,30l137-54l137,64v117H823H686H549H411H274H137H0V442z"/>
<path class="st6" d="M0,456l137-16l137,28l137-89l138,88l137-59l137,54l137-72v151H823H686H549H411H274H137H0V456z"/>
<path class="st7" d="M0,471l137-41l137,8l137-5l138-5l137,35l137-44l137-6v128H823H686H549H411H274H137H0V471z"/>
<path class="st8" d="M0,499l137-11l137-5l137,17l138-23l137-28l137,32l137-25v85H823H686H549H411H274H137H0V499z"/>
<path class="st9" d="M0,509l137,8l137,7l137-1l138-36l137,11l137,3l137-7v47H823H686H549H411H274H137H0V509z"/>
</svg>
