<svg id="visual" viewBox="0 0 1920 1080" width="1920" height="1080" xmlns="http://www.w3.org/2000/svg" xmlns:xlink="http://www.w3.org/1999/xlink" version="1.1"><rect x="0" y="0" width="1920" height="1080" fill="#5d1c94"></rect><path d="M0 756L274 640L549 753L823 698L1097 643L1371 738L1646 791L1920 769L1920 1081L1646 1081L1371 1081L1097 1081L823 1081L549 1081L274 1081L0 1081Z" fill="#f50af5"></path><path d="M0 773L274 836L549 754L823 780L1097 850L1371 836L1646 728L1920 772L1920 1081L1646 1081L1371 1081L1097 1081L823 1081L549 1081L274 1081L0 1081Z" fill="#d30ae9"></path><path d="M0 824L274 898L549 889L823 908L1097 911L1371 882L1646 900L1920 906L1920 1081L1646 1081L1371 1081L1097 1081L823 1081L549 1081L274 1081L0 1081Z" fill="#b10adb"></path><path d="M0 957L274 932L549 939L823 892L1097 908L1371 870L1646 884L1920 872L1920 1081L1646 1081L1371 1081L1097 1081L823 1081L549 1081L274 1081L0 1081Z" fill="#8f0bcd"></path><path d="M0 971L274 981L549 980L823 959L1097 960L1371 1023L1646 979L1920 978L1920 1081L1646 1081L1371 1081L1097 1081L823 1081L549 1081L274 1081L0 1081Z" fill="#6d0bbe"></path></svg>