<svg id="visual" viewBox="0 0 960 540" width="960" height="540" xmlns="http://www.w3.org/2000/svg" xmlns:xlink="http://www.w3.org/1999/xlink" version="1.1"><rect x="0" y="0" width="960" height="540" fill="#210606"></rect><path d="M0 200L137 237L274 306L411 359L549 313L686 317L823 363L960 362L960 541L823 541L686 541L549 541L411 541L274 541L137 541L0 541Z" fill="#f5730a"></path><path d="M0 266L137 300L274 331L411 347L549 289L686 294L823 379L960 293L960 541L823 541L686 541L549 541L411 541L274 541L137 541L0 541Z" fill="#e7670a"></path><path d="M0 376L137 381L274 347L411 349L549 359L686 400L823 333L960 364L960 541L823 541L686 541L549 541L411 541L274 541L137 541L0 541Z" fill="#da5b09"></path><path d="M0 419L137 344L274 405L411 434L549 387L686 322L823 433L960 426L960 541L823 541L686 541L549 541L411 541L274 541L137 541L0 541Z" fill="#cc4f08"></path><path d="M0 431L137 351L274 382L411 445L549 425L686 402L823 364L960 407L960 541L823 541L686 541L549 541L411 541L274 541L137 541L0 541Z" fill="#be4407"></path><path d="M0 391L137 416L274 378L411 467L549 408L686 402L823 467L960 432L960 541L823 541L686 541L549 541L411 541L274 541L137 541L0 541Z" fill="#b03806"></path><path d="M0 451L137 439L274 432L411 470L549 436L686 425L823 412L960 434L960 541L823 541L686 541L549 541L411 541L274 541L137 541L0 541Z" fill="#a32d04"></path><path d="M0 490L137 486L274 475L411 478L549 487L686 442L823 441L960 494L960 541L823 541L686 541L549 541L411 541L274 541L137 541L0 541Z" fill="#952103"></path><path d="M0 493L137 522L274 476L411 523L549 504L686 485L823 496L960 513L960 541L823 541L686 541L549 541L411 541L274 541L137 541L0 541Z" fill="#871400"></path></svg>