<svg id="visual" viewBox="0 0 960 540" width="960" height="540" xmlns="http://www.w3.org/2000/svg" xmlns:xlink="http://www.w3.org/1999/xlink" version="1.1"><rect x="0" y="0" width="960" height="540" fill="#210606"></rect><path d="M0 356L137 268L274 284L411 371L549 336L686 267L823 378L960 274L960 541L823 541L686 541L549 541L411 541L274 541L137 541L0 541Z" fill="#f5730a"></path><path d="M0 387L137 244L274 379L411 306L549 389L686 328L823 309L960 344L960 541L823 541L686 541L549 541L411 541L274 541L137 541L0 541Z" fill="#e7670a"></path><path d="M0 276L137 415L274 353L411 412L549 313L686 312L823 322L960 395L960 541L823 541L686 541L549 541L411 541L274 541L137 541L0 541Z" fill="#da5b09"></path><path d="M0 376L137 418L274 317L411 331L549 315L686 370L823 332L960 334L960 541L823 541L686 541L549 541L411 541L274 541L137 541L0 541Z" fill="#cc4f08"></path><path d="M0 375L137 427L274 377L411 399L549 382L686 338L823 346L960 386L960 541L823 541L686 541L549 541L411 541L274 541L137 541L0 541Z" fill="#be4407"></path><path d="M0 467L137 413L274 422L411 470L549 452L686 380L823 380L960 397L960 541L823 541L686 541L549 541L411 541L274 541L137 541L0 541Z" fill="#b03806"></path><path d="M0 447L137 414L274 477L411 485L549 454L686 437L823 424L960 479L960 541L823 541L686 541L549 541L411 541L274 541L137 541L0 541Z" fill="#a32d04"></path><path d="M0 505L137 509L274 493L411 497L549 487L686 472L823 506L960 456L960 541L823 541L686 541L549 541L411 541L274 541L137 541L0 541Z" fill="#952103"></path><path d="M0 499L137 490L274 476L411 492L549 522L686 517L823 478L960 513L960 541L823 541L686 541L549 541L411 541L274 541L137 541L0 541Z" fill="#871400"></path></svg>