<svg id="visual" viewBox="0 0 1920 1080" width="1920" height="1080" xmlns="http://www.w3.org/2000/svg" xmlns:xlink="http://www.w3.org/1999/xlink" version="1.1"><rect x="0" y="0" width="1920" height="1080" fill="#5d1c94"></rect><path d="M0 654L274 692L549 709L823 687L1097 647L1371 751L1646 712L1920 765L1920 1081L1646 1081L1371 1081L1097 1081L823 1081L549 1081L274 1081L0 1081Z" fill="#f50af5"></path><path d="M0 856L274 835L549 721L823 746L1097 819L1371 834L1646 742L1920 864L1920 1081L1646 1081L1371 1081L1097 1081L823 1081L549 1081L274 1081L0 1081Z" fill="#d30ae9"></path><path d="M0 919L274 912L549 898L823 907L1097 833L1371 853L1646 904L1920 800L1920 1081L1646 1081L1371 1081L1097 1081L823 1081L549 1081L274 1081L0 1081Z" fill="#b10adb"></path><path d="M0 874L274 943L549 951L823 974L1097 914L1371 900L1646 893L1920 932L1920 1081L1646 1081L1371 1081L1097 1081L823 1081L549 1081L274 1081L0 1081Z" fill="#8f0bcd"></path><path d="M0 1001L274 962L549 1023L823 1010L1097 987L1371 955L1646 1026L1920 970L1920 1081L1646 1081L1371 1081L1097 1081L823 1081L549 1081L274 1081L0 1081Z" fill="#6d0bbe"></path></svg>