<svg id="visual" viewBox="0 0 960 540" width="100%" height="100%" xmlns="http://www.w3.org/2000/svg" xmlns:xlink="http://www.w3.org/1999/xlink" version="1.1"><rect x="0" y="0" width="960" height="540" fill="#210606"></rect><path d="M0 345L137 331L274 331L411 323L549 267L686 377L823 300L960 202L960 541L823 541L686 541L549 541L411 541L274 541L137 541L0 541Z" fill="#f5730a"></path><path d="M0 282L137 352L274 358L411 361L549 367L686 358L823 269L960 250L960 541L823 541L686 541L549 541L411 541L274 541L137 541L0 541Z" fill="#e7670a"></path><path d="M0 366L137 402L274 343L411 290L549 310L686 417L823 283L960 385L960 541L823 541L686 541L549 541L411 541L274 541L137 541L0 541Z" fill="#da5b09"></path><path d="M0 372L137 370L274 421L411 361L549 360L686 337L823 396L960 401L960 541L823 541L686 541L549 541L411 541L274 541L137 541L0 541Z" fill="#cc4f08"></path><path d="M0 445L137 442L274 392L411 445L549 359L686 369L823 430L960 341L960 541L823 541L686 541L549 541L411 541L274 541L137 541L0 541Z" fill="#be4407"></path><path d="M0 446L137 391L274 374L411 431L549 403L686 411L823 396L960 457L960 541L823 541L686 541L549 541L411 541L274 541L137 541L0 541Z" fill="#b03806"></path><path d="M0 409L137 439L274 476L411 409L549 466L686 490L823 415L960 442L960 541L823 541L686 541L549 541L411 541L274 541L137 541L0 541Z" fill="#a32d04"></path><path d="M0 492L137 476L274 489L411 501L549 499L686 493L823 447L960 467L960 541L823 541L686 541L549 541L411 541L274 541L137 541L0 541Z" fill="#952103"></path><path d="M0 512L137 502L274 486L411 524L549 489L686 487L823 526L960 518L960 541L823 541L686 541L549 541L411 541L274 541L137 541L0 541Z" fill="#871400"></path></svg>