<svg id="visual" viewBox="0 0 1920 1080" width="1920" height="1080" xmlns="http://www.w3.org/2000/svg" xmlns:xlink="http://www.w3.org/1999/xlink" version="1.1"><rect x="0" y="0" width="1920" height="1080" fill="#5d1c94"></rect><path d="M0 654L274 765L549 739L823 663L1097 775L1371 744L1646 775L1920 755L1920 1081L1646 1081L1371 1081L1097 1081L823 1081L549 1081L274 1081L0 1081Z" fill="#f50af5"></path><path d="M0 724L274 806L549 833L823 859L1097 770L1371 793L1646 732L1920 771L1920 1081L1646 1081L1371 1081L1097 1081L823 1081L549 1081L274 1081L0 1081Z" fill="#d30ae9"></path><path d="M0 916L274 889L549 844L823 910L1097 901L1371 835L1646 847L1920 908L1920 1081L1646 1081L1371 1081L1097 1081L823 1081L549 1081L274 1081L0 1081Z" fill="#b10adb"></path><path d="M0 884L274 916L549 952L823 932L1097 904L1371 910L1646 903L1920 909L1920 1081L1646 1081L1371 1081L1097 1081L823 1081L549 1081L274 1081L0 1081Z" fill="#8f0bcd"></path><path d="M0 964L274 960L549 1000L823 997L1097 962L1371 950L1646 1002L1920 992L1920 1081L1646 1081L1371 1081L1097 1081L823 1081L549 1081L274 1081L0 1081Z" fill="#6d0bbe"></path></svg>