<svg id="visual" viewBox="0 0 1920 1080" width="1920" height="1080" xmlns="http://www.w3.org/2000/svg" xmlns:xlink="http://www.w3.org/1999/xlink" version="1.1"><rect x="0" y="0" width="1920" height="1080" fill="#5d1c94"></rect><path d="M0 725L274 732L549 659L823 730L1097 770L1371 722L1646 658L1920 742L1920 1081L1646 1081L1371 1081L1097 1081L823 1081L549 1081L274 1081L0 1081Z" fill="#f50af5"></path><path d="M0 803L274 714L549 838L823 852L1097 818L1371 783L1646 784L1920 729L1920 1081L1646 1081L1371 1081L1097 1081L823 1081L549 1081L274 1081L0 1081Z" fill="#d30ae9"></path><path d="M0 831L274 801L549 878L823 804L1097 894L1371 873L1646 887L1920 899L1920 1081L1646 1081L1371 1081L1097 1081L823 1081L549 1081L274 1081L0 1081Z" fill="#b10adb"></path><path d="M0 940L274 874L549 927L823 913L1097 954L1371 905L1646 882L1920 899L1920 1081L1646 1081L1371 1081L1097 1081L823 1081L549 1081L274 1081L0 1081Z" fill="#8f0bcd"></path><path d="M0 1002L274 969L549 977L823 983L1097 946L1371 996L1646 969L1920 1019L1920 1081L1646 1081L1371 1081L1097 1081L823 1081L549 1081L274 1081L0 1081Z" fill="#6d0bbe"></path></svg>