<svg id="visual" viewBox="0 0 960 540" width="960" height="540" xmlns="http://www.w3.org/2000/svg" xmlns:xlink="http://www.w3.org/1999/xlink" version="1.1"><rect x="0" y="0" width="960" height="540" fill="#210606"></rect><path d="M0 347L137 205L274 301L411 332L549 269L686 274L823 249L960 365L960 541L823 541L686 541L549 541L411 541L274 541L137 541L0 541Z" fill="#f5730a"></path><path d="M0 372L137 252L274 357L411 245L549 305L686 235L823 357L960 264L960 541L823 541L686 541L549 541L411 541L274 541L137 541L0 541Z" fill="#e7670a"></path><path d="M0 271L137 398L274 332L411 356L549 281L686 365L823 402L960 384L960 541L823 541L686 541L549 541L411 541L274 541L137 541L0 541Z" fill="#da5b09"></path><path d="M0 315L137 319L274 431L411 393L549 355L686 358L823 404L960 334L960 541L823 541L686 541L549 541L411 541L274 541L137 541L0 541Z" fill="#cc4f08"></path><path d="M0 409L137 382L274 428L411 363L549 447L686 401L823 434L960 418L960 541L823 541L686 541L549 541L411 541L274 541L137 541L0 541Z" fill="#be4407"></path><path d="M0 427L137 378L274 445L411 414L549 396L686 374L823 441L960 403L960 541L823 541L686 541L549 541L411 541L274 541L137 541L0 541Z" fill="#b03806"></path><path d="M0 448L137 480L274 482L411 410L549 453L686 451L823 436L960 411L960 541L823 541L686 541L549 541L411 541L274 541L137 541L0 541Z" fill="#a32d04"></path><path d="M0 469L137 505L274 497L411 468L549 448L686 470L823 447L960 446L960 541L823 541L686 541L549 541L411 541L274 541L137 541L0 541Z" fill="#952103"></path><path d="M0 494L137 498L274 505L411 492L549 513L686 504L823 518L960 500L960 541L823 541L686 541L549 541L411 541L274 541L137 541L0 541Z" fill="#871400"></path></svg>