<svg id="visual" viewBox="0 0 1920 1080" width="1920" height="1080" xmlns="http://www.w3.org/2000/svg" xmlns:xlink="http://www.w3.org/1999/xlink" version="1.1"><rect x="0" y="0" width="1920" height="1080" fill="#5d1c94"></rect><path d="M0 781L274 772L549 721L823 778L1097 694L1371 642L1646 726L1920 646L1920 1081L1646 1081L1371 1081L1097 1081L823 1081L549 1081L274 1081L0 1081Z" fill="#f50af5"></path><path d="M0 767L274 846L549 829L823 799L1097 814L1371 746L1646 858L1920 854L1920 1081L1646 1081L1371 1081L1097 1081L823 1081L549 1081L274 1081L0 1081Z" fill="#d30ae9"></path><path d="M0 896L274 886L549 909L823 869L1097 848L1371 856L1646 805L1920 805L1920 1081L1646 1081L1371 1081L1097 1081L823 1081L549 1081L274 1081L0 1081Z" fill="#b10adb"></path><path d="M0 959L274 894L549 896L823 885L1097 888L1371 961L1646 871L1920 884L1920 1081L1646 1081L1371 1081L1097 1081L823 1081L549 1081L274 1081L0 1081Z" fill="#8f0bcd"></path><path d="M0 969L274 1021L549 1006L823 993L1097 1013L1371 969L1646 996L1920 985L1920 1081L1646 1081L1371 1081L1097 1081L823 1081L549 1081L274 1081L0 1081Z" fill="#6d0bbe"></path></svg>