<?xml version="1.0" encoding="UTF-8"?><svg id="visual" xmlns="http://www.w3.org/2000/svg" width="960" height="541" viewBox="0 0 960 541"><rect y="1" width="960" height="540" fill="#210606"/><path d="m960,253l-137-82-137,164-137-1-138-115-137,42-137-60L0,285V0h960v253Z" fill="#f5730a"/><path d="m960,239l-137,55-137-70-137-39-138-27-137,117-137-56L0,153V0h960v239Z" fill="#e7670a"/><path d="m960,202l-137-49-137,112-137-60-138,6-137,55-137-59L0,170V0h960v202Z" fill="#da5b09"/><path d="m960,167l-137,9-137-23-137,7-138,75-137-111-137,59L0,161V0h960v167Z" fill="#cc4f08"/><path d="m960,143l-137-44-137,63-137-25-138-12-137,58-137-66L0,157V0h960v143Z" fill="#be4407"/><path d="m960,85l-137,51-137,31-137-32-138-19-137-14-137,59L0,141V0h960v85Z" fill="#b03806"/><path d="m960,73l-137,56-137-70-137,27-138-28-137,37-137,3L0,77V0h960v73Z" fill="#a32d04"/><path d="m960,101l-137-38-137,13-137,10-138-50-137,1h-137L0,98V0h960v101Z" fill="#952103"/><path d="m960,62l-137-27-137-3-137,12-138-20-137,18-137-21L0,43V0h960v62Z" fill="#871400"/></svg>