<svg id="visual" viewBox="0 0 960 540" width="960" height="540" xmlns="http://www.w3.org/2000/svg" xmlns:xlink="http://www.w3.org/1999/xlink" version="1.1"><rect x="0" y="0" width="960" height="540" fill="#210606"></rect><path d="M0 319L137 378L274 248L411 229L549 365L686 256L823 247L960 271L960 541L823 541L686 541L549 541L411 541L274 541L137 541L0 541Z" fill="#f5730a"></path><path d="M0 328L137 364L274 260L411 314L549 284L686 256L823 292L960 386L960 541L823 541L686 541L549 541L411 541L274 541L137 541L0 541Z" fill="#e7670a"></path><path d="M0 287L137 344L274 414L411 323L549 344L686 310L823 398L960 394L960 541L823 541L686 541L549 541L411 541L274 541L137 541L0 541Z" fill="#da5b09"></path><path d="M0 425L137 334L274 308L411 405L549 398L686 416L823 383L960 404L960 541L823 541L686 541L549 541L411 541L274 541L137 541L0 541Z" fill="#cc4f08"></path><path d="M0 435L137 411L274 452L411 407L549 338L686 389L823 358L960 428L960 541L823 541L686 541L549 541L411 541L274 541L137 541L0 541Z" fill="#be4407"></path><path d="M0 441L137 453L274 423L411 415L549 429L686 404L823 416L960 398L960 541L823 541L686 541L549 541L411 541L274 541L137 541L0 541Z" fill="#b03806"></path><path d="M0 441L137 431L274 452L411 459L549 443L686 450L823 457L960 488L960 541L823 541L686 541L549 541L411 541L274 541L137 541L0 541Z" fill="#a32d04"></path><path d="M0 504L137 485L274 457L411 507L549 476L686 452L823 470L960 498L960 541L823 541L686 541L549 541L411 541L274 541L137 541L0 541Z" fill="#952103"></path><path d="M0 527L137 488L274 516L411 479L549 522L686 503L823 524L960 488L960 541L823 541L686 541L549 541L411 541L274 541L137 541L0 541Z" fill="#871400"></path></svg>