<svg id="visual" viewBox="0 0 900 600" width="900" height="600" xmlns="http://www.w3.org/2000/svg" xmlns:xlink="http://www.w3.org/1999/xlink" version="1.1"><rect x="0" y="0" width="900" height="600" fill="#191e35"></rect><path d="M0 343L13.7 350.2C27.3 357.3 54.7 371.7 82 358C109.3 344.3 136.7 302.7 163.8 288.7C191 274.7 218 288.3 245.2 295.2C272.3 302 299.7 302 327 316C354.3 330 381.7 358 409 348.8C436.3 339.7 463.7 293.3 491 270.2C518.3 247 545.7 247 573 258.2C600.3 269.3 627.7 291.7 654.8 313.7C682 335.7 709 357.3 736.2 362.2C763.3 367 790.7 355 818 338.2C845.3 321.3 872.7 299.7 886.3 288.8L900 278L900 601L886.3 601C872.7 601 845.3 601 818 601C790.7 601 763.3 601 736.2 601C709 601 682 601 654.8 601C627.7 601 600.3 601 573 601C545.7 601 518.3 601 491 601C463.7 601 436.3 601 409 601C381.7 601 354.3 601 327 601C299.7 601 272.3 601 245.2 601C218 601 191 601 163.8 601C136.7 601 109.3 601 82 601C54.7 601 27.3 601 13.7 601L0 601Z" fill="#193356"></path><path d="M0 426L13.7 415.5C27.3 405 54.7 384 82 377.7C109.3 371.3 136.7 379.7 163.8 390.3C191 401 218 414 245.2 410.7C272.3 407.3 299.7 387.7 327 380.2C354.3 372.7 381.7 377.3 409 366.5C436.3 355.7 463.7 329.3 491 321.7C518.3 314 545.7 325 573 328.3C600.3 331.7 627.7 327.3 654.8 335.2C682 343 709 363 736.2 368.3C763.3 373.7 790.7 364.3 818 358C845.3 351.7 872.7 348.3 886.3 346.7L900 345L900 601L886.3 601C872.7 601 845.3 601 818 601C790.7 601 763.3 601 736.2 601C709 601 682 601 654.8 601C627.7 601 600.3 601 573 601C545.7 601 518.3 601 491 601C463.7 601 436.3 601 409 601C381.7 601 354.3 601 327 601C299.7 601 272.3 601 245.2 601C218 601 191 601 163.8 601C136.7 601 109.3 601 82 601C54.7 601 27.3 601 13.7 601L0 601Z" fill="#463e6e"></path><path d="M0 399L13.7 410C27.3 421 54.7 443 82 452.8C109.3 462.7 136.7 460.3 163.8 448C191 435.7 218 413.3 245.2 398.2C272.3 383 299.7 375 327 372C354.3 369 381.7 371 409 375.7C436.3 380.3 463.7 387.7 491 401.8C518.3 416 545.7 437 573 447.7C600.3 458.3 627.7 458.7 654.8 447.7C682 436.7 709 414.3 736.2 411.2C763.3 408 790.7 424 818 434.7C845.3 445.3 872.7 450.7 886.3 453.3L900 456L900 601L886.3 601C872.7 601 845.3 601 818 601C790.7 601 763.3 601 736.2 601C709 601 682 601 654.8 601C627.7 601 600.3 601 573 601C545.7 601 518.3 601 491 601C463.7 601 436.3 601 409 601C381.7 601 354.3 601 327 601C299.7 601 272.3 601 245.2 601C218 601 191 601 163.8 601C136.7 601 109.3 601 82 601C54.7 601 27.3 601 13.7 601L0 601Z" fill="#77457b"></path><path d="M0 430L13.7 435C27.3 440 54.7 450 82 457.3C109.3 464.7 136.7 469.3 163.8 469.3C191 469.3 218 464.7 245.2 451.7C272.3 438.7 299.7 417.3 327 419C354.3 420.7 381.7 445.3 409 447.3C436.3 449.3 463.7 428.7 491 430.7C518.3 432.7 545.7 457.3 573 455.2C600.3 453 627.7 424 654.8 421.8C682 419.7 709 444.3 736.2 447.7C763.3 451 790.7 433 818 437.8C845.3 442.7 872.7 470.3 886.3 484.2L900 498L900 601L886.3 601C872.7 601 845.3 601 818 601C790.7 601 763.3 601 736.2 601C709 601 682 601 654.8 601C627.7 601 600.3 601 573 601C545.7 601 518.3 601 491 601C463.7 601 436.3 601 409 601C381.7 601 354.3 601 327 601C299.7 601 272.3 601 245.2 601C218 601 191 601 163.8 601C136.7 601 109.3 601 82 601C54.7 601 27.3 601 13.7 601L0 601Z" fill="#a64b7c"></path><path d="M0 461L13.7 472.8C27.3 484.7 54.7 508.3 82 512.5C109.3 516.7 136.7 501.3 163.8 492.3C191 483.3 218 480.7 245.2 489.3C272.3 498 299.7 518 327 524.8C354.3 531.7 381.7 525.3 409 523.7C436.3 522 463.7 525 491 518.8C518.3 512.7 545.7 497.3 573 494C600.3 490.7 627.7 499.3 654.8 501.8C682 504.3 709 500.7 736.2 501.5C763.3 502.3 790.7 507.7 818 508.7C845.3 509.7 872.7 506.3 886.3 504.7L900 503L900 601L886.3 601C872.7 601 845.3 601 818 601C790.7 601 763.3 601 736.2 601C709 601 682 601 654.8 601C627.7 601 600.3 601 573 601C545.7 601 518.3 601 491 601C463.7 601 436.3 601 409 601C381.7 601 354.3 601 327 601C299.7 601 272.3 601 245.2 601C218 601 191 601 163.8 601C136.7 601 109.3 601 82 601C54.7 601 27.3 601 13.7 601L0 601Z" fill="#cf5870"></path><path d="M0 566L13.7 561C27.3 556 54.7 546 82 545.3C109.3 544.7 136.7 553.3 163.8 554.7C191 556 218 550 245.2 545.7C272.3 541.3 299.7 538.7 327 536C354.3 533.3 381.7 530.7 409 527.3C436.3 524 463.7 520 491 525.2C518.3 530.3 545.7 544.7 573 554.3C600.3 564 627.7 569 654.8 561.5C682 554 709 534 736.2 528.7C763.3 523.3 790.7 532.7 818 535C845.3 537.3 872.7 532.7 886.3 530.3L900 528L900 601L886.3 601C872.7 601 845.3 601 818 601C790.7 601 763.3 601 736.2 601C709 601 682 601 654.8 601C627.7 601 600.3 601 573 601C545.7 601 518.3 601 491 601C463.7 601 436.3 601 409 601C381.7 601 354.3 601 327 601C299.7 601 272.3 601 245.2 601C218 601 191 601 163.8 601C136.7 601 109.3 601 82 601C54.7 601 27.3 601 13.7 601L0 601Z" fill="#eb6f5d"></path></svg>